HIERARCHY
ROOT Hips
{
	OFFSET 0.000000 0.000000 0.000000
	CHANNELS 6 Xposition Yposition Zposition Zrotation Yrotation Xrotation 
	JOINT Spine1
	{
		OFFSET -0.013727 5.003762 -0.053727
		CHANNELS 3 Zrotation Yrotation Xrotation
		JOINT Spine2
		{
			OFFSET -0.000000 7.125302 -0.029825
			CHANNELS 3 Zrotation Yrotation Xrotation
			JOINT Chest
			{
				OFFSET -0.000001 7.550064 -0.815971
				CHANNELS 3 Zrotation Yrotation Xrotation
				JOINT Neck1
				{
					OFFSET -0.181677 26.311296 -0.553348
					CHANNELS 3 Zrotation Yrotation Xrotation
					JOINT Neck2
					{
						OFFSET -0.000003 7.709398 2.302586
						CHANNELS 3 Zrotation Yrotation Xrotation
						JOINT Head
						{
							OFFSET -0.000005 6.128913 1.953709
							CHANNELS 3 Zrotation Yrotation Xrotation
							JOINT HeadEnd
							{
								OFFSET 0.003598 16.065401 -1.835379
								CHANNELS 3 Zrotation Yrotation Xrotation
								End Site
								{
									OFFSET 0.000000 0.000000 0.000000
								}
							}
							JOINT Jaw
							{
								OFFSET 0.002637 0.475591 3.094941
								CHANNELS 3 Zrotation Yrotation Xrotation
								End Site
								{
									OFFSET 0.000000 0.000000 0.000000
								}
							}
							JOINT LeftEye
							{
								OFFSET 3.206381 5.380207 7.586883
								CHANNELS 3 Zrotation Yrotation Xrotation
								End Site
								{
									OFFSET 0.000000 0.000000 0.000000
								}
							}
							JOINT RightEye
							{
								OFFSET -3.222440 5.361866 7.558233
								CHANNELS 3 Zrotation Yrotation Xrotation
								End Site
								{
									OFFSET 0.000000 0.000000 0.000000
								}
							}
						}
					}
				}
				JOINT LeftShoulder
				{
					OFFSET 1.621652 23.237164 5.113413
					CHANNELS 3 Zrotation Yrotation Xrotation
					JOINT LeftArm
					{
						OFFSET 14.919845 0.000000 -5.502326
						CHANNELS 3 Zrotation Yrotation Xrotation
						JOINT LeftForeArm
						{
							OFFSET 28.739309 0.000004 -0.002588
							CHANNELS 3 Zrotation Yrotation Xrotation
							JOINT LeftHand
							{
								OFFSET 27.093979 -0.000004 0.002609
								CHANNELS 3 Zrotation Yrotation Xrotation
								JOINT LeftHandThumb1
								{
									OFFSET 2.276480 -1.392046 3.191413
									CHANNELS 3 Zrotation Yrotation Xrotation
									JOINT LeftHandThumb2
									{
										OFFSET 4.012842 -1.828126 1.641655
										CHANNELS 3 Zrotation Yrotation Xrotation
										JOINT LeftHandThumb3
										{
											OFFSET 2.798517 0.000001 -0.000004
											CHANNELS 3 Zrotation Yrotation Xrotation
											JOINT LeftHandThumbEnd
											{
												OFFSET 3.180791 -0.000001 0.000004
												CHANNELS 3 Zrotation Yrotation Xrotation
												End Site
												{
													OFFSET 0.000000 0.000000 0.000000
												}
											}
										}
									}
								}
								JOINT LeftHandIndex1
								{
									OFFSET 3.247553 -0.531998 2.296169
									CHANNELS 3 Zrotation Yrotation Xrotation
									JOINT LeftHandIndex2
									{
										OFFSET 6.364580 0.012062 0.178600
										CHANNELS 3 Zrotation Yrotation Xrotation
										JOINT LeftHandIndex3
										{
											OFFSET 3.662367 0.000001 0.000000
											CHANNELS 3 Zrotation Yrotation Xrotation
											JOINT LeftHandIndex4
											{
												OFFSET 2.329242 0.000001 0.000004
												CHANNELS 3 Zrotation Yrotation Xrotation
												JOINT LeftHandIndexEnd
												{
													OFFSET 2.759619 -0.180539 -0.113023
													CHANNELS 3 Zrotation Yrotation Xrotation
													End Site
													{
														OFFSET 0.000000 0.000000 0.000000
													}
												}
											}
										}
									}
								}
								JOINT LeftHandMiddle1
								{
									OFFSET 3.163499 0.240981 1.000332
									CHANNELS 3 Zrotation Yrotation Xrotation
									JOINT LeftHandMiddle2
									{
										OFFSET 6.190778 -0.259276 -1.002548
										CHANNELS 3 Zrotation Yrotation Xrotation
										JOINT LeftHandMiddle3
										{
											OFFSET 4.356522 -0.000007 0.000000
											CHANNELS 3 Zrotation Yrotation Xrotation
											JOINT LeftHandMiddle4
											{
												OFFSET 2.996875 -0.000007 0.000001
												CHANNELS 3 Zrotation Yrotation Xrotation
												JOINT LeftHandMiddleEnd
												{
													OFFSET 2.304294 -0.294571 -0.031740
													CHANNELS 3 Zrotation Yrotation Xrotation
													End Site
													{
														OFFSET 0.000000 0.000000 0.000000
													}
												}
											}
										}
									}
								}
								JOINT LeftHandRing1
								{
									OFFSET 2.882642 -0.053650 -0.322543
									CHANNELS 3 Zrotation Yrotation Xrotation
									JOINT LeftHandRing2
									{
										OFFSET 5.854543 -0.486203 -1.373841
										CHANNELS 3 Zrotation Yrotation Xrotation
										JOINT LeftHandRing3
										{
											OFFSET 4.350579 0.000000 0.000003
											CHANNELS 3 Zrotation Yrotation Xrotation
											JOINT LeftHandRing4
											{
												OFFSET 2.651323 0.000007 0.000004
												CHANNELS 3 Zrotation Yrotation Xrotation
												JOINT LeftHandRingEnd
												{
													OFFSET 1.936111 0.077685 -0.000070
													CHANNELS 3 Zrotation Yrotation Xrotation
													End Site
													{
														OFFSET 0.000000 0.000000 0.000000
													}
												}
											}
										}
									}
								}
								JOINT LeftHandPinky1
								{
									OFFSET 2.865499 -0.310004 -1.600378
									CHANNELS 3 Zrotation Yrotation Xrotation
									JOINT LeftHandPinky2
									{
										OFFSET 5.087853 -1.331142 -1.771231
										CHANNELS 3 Zrotation Yrotation Xrotation
										JOINT LeftHandPinky3
										{
											OFFSET 3.070976 0.000004 0.000001
											CHANNELS 3 Zrotation Yrotation Xrotation
											JOINT LeftHandPinky4
											{
												OFFSET 1.549667 0.000000 0.000001
												CHANNELS 3 Zrotation Yrotation Xrotation
												JOINT LeftHandPinkyEnd
												{
													OFFSET 1.944894 -0.157802 0.057219
													CHANNELS 3 Zrotation Yrotation Xrotation
													End Site
													{
														OFFSET 0.000000 0.000000 0.000000
													}
												}
											}
										}
									}
								}
							}
						}
					}
				}
				JOINT RightShoulder
				{
					OFFSET -1.380118 23.180307 5.214158
					CHANNELS 3 Zrotation Yrotation Xrotation
					JOINT RightArm
					{
						OFFSET -15.037197 0.000012 -5.545604
						CHANNELS 3 Zrotation Yrotation Xrotation
						JOINT RightForeArm
						{
							OFFSET -28.736639 0.000003 -0.002597
							CHANNELS 3 Zrotation Yrotation Xrotation
							JOINT RightHand
							{
								OFFSET -27.133617 -0.000001 0.002613
								CHANNELS 3 Zrotation Yrotation Xrotation
								JOINT RightHandThumb1
								{
									OFFSET -2.274036 -1.383990 3.163128
									CHANNELS 3 Zrotation Yrotation Xrotation
									JOINT RightHandThumb2
									{
										OFFSET -4.011429 -1.827468 1.640914
										CHANNELS 3 Zrotation Yrotation Xrotation
										JOINT RightHandThumb3
										{
											OFFSET -2.794935 -0.000003 -0.000003
											CHANNELS 3 Zrotation Yrotation Xrotation
											JOINT RightHandThumbEnd
											{
												OFFSET -3.183855 0.000003 -0.000000
												CHANNELS 3 Zrotation Yrotation Xrotation
												End Site
												{
													OFFSET 0.000000 0.000000 0.000000
												}
											}
										}
									}
								}
								JOINT RightHandIndex1
								{
									OFFSET -3.253269 -0.520060 2.282866
									CHANNELS 3 Zrotation Yrotation Xrotation
									JOINT RightHandIndex2
									{
										OFFSET -6.341918 0.012472 0.178265
										CHANNELS 3 Zrotation Yrotation Xrotation
										JOINT RightHandIndex3
										{
											OFFSET -3.654875 -0.000009 -0.000001
											CHANNELS 3 Zrotation Yrotation Xrotation
											JOINT RightHandIndex4
											{
												OFFSET -2.327586 -0.000001 0.000001
												CHANNELS 3 Zrotation Yrotation Xrotation
												JOINT RightHandIndexEnd
												{
													OFFSET -2.761789 -0.180657 -0.113079
													CHANNELS 3 Zrotation Yrotation Xrotation
													End Site
													{
														OFFSET 0.000000 0.000000 0.000000
													}
												}
											}
										}
									}
								}
								JOINT RightHandMiddle1
								{
									OFFSET -3.168106 0.246593 1.001030
									CHANNELS 3 Zrotation Yrotation Xrotation
									JOINT RightHandMiddle2
									{
										OFFSET -6.180830 -0.258836 -1.000896
										CHANNELS 3 Zrotation Yrotation Xrotation
										JOINT RightHandMiddle3
										{
											OFFSET -4.348905 -0.000001 -0.000001
											CHANNELS 3 Zrotation Yrotation Xrotation
											JOINT RightHandMiddle4
											{
												OFFSET -3.000243 -0.000003 -0.000002
												CHANNELS 3 Zrotation Yrotation Xrotation
												JOINT RightHandMiddleEnd
												{
													OFFSET -2.302518 -0.294371 -0.031706
													CHANNELS 3 Zrotation Yrotation Xrotation
													End Site
													{
														OFFSET 0.000000 0.000000 0.000000
													}
												}
											}
										}
									}
								}
								JOINT RightHandRing1
								{
									OFFSET -2.885694 -0.067952 -0.308858
									CHANNELS 3 Zrotation Yrotation Xrotation
									JOINT RightHandRing2
									{
										OFFSET -5.854197 -0.486132 -1.373732
										CHANNELS 3 Zrotation Yrotation Xrotation
										JOINT RightHandRing3
										{
											OFFSET -4.338813 -0.000004 -0.000000
											CHANNELS 3 Zrotation Yrotation Xrotation
											JOINT RightHandRing4
											{
												OFFSET -2.654905 -0.000004 0.000003
												CHANNELS 3 Zrotation Yrotation Xrotation
												JOINT RightHandRingEnd
												{
													OFFSET -1.933571 0.077524 -0.000052
													CHANNELS 3 Zrotation Yrotation Xrotation
													End Site
													{
														OFFSET 0.000000 0.000000 0.000000
													}
												}
											}
										}
									}
								}
								JOINT RightHandPinky1
								{
									OFFSET -2.866430 -0.342798 -1.584145
									CHANNELS 3 Zrotation Yrotation Xrotation
									JOINT RightHandPinky2
									{
										OFFSET -5.091369 -1.332054 -1.772385
										CHANNELS 3 Zrotation Yrotation Xrotation
										JOINT RightHandPinky3
										{
											OFFSET -3.062666 -0.000007 0.000000
											CHANNELS 3 Zrotation Yrotation Xrotation
											JOINT RightHandPinky4
											{
												OFFSET -1.546527 0.000005 -0.000002
												CHANNELS 3 Zrotation Yrotation Xrotation
												JOINT RightHandPinkyEnd
												{
													OFFSET -1.945122 -0.157721 0.057211
													CHANNELS 3 Zrotation Yrotation Xrotation
													End Site
													{
														OFFSET 0.000000 0.000000 0.000000
													}
												}
											}
										}
									}
								}
							}
						}
					}
				}
			}
		}
	}
	JOINT LeftLeg
	{
		OFFSET 10.043214 -8.434526 2.595655
		CHANNELS 3 Zrotation Yrotation Xrotation
		JOINT LeftShin
		{
			OFFSET -0.000001 -43.221752 -0.802913
			CHANNELS 3 Zrotation Yrotation Xrotation
			JOINT LeftFoot
			{
				OFFSET 0.000001 -42.155094 -3.481523
				CHANNELS 3 Zrotation Yrotation Xrotation
				JOINT LeftToeBase
				{
					OFFSET 0.000000 -5.059475 13.231529
					CHANNELS 3 Zrotation Yrotation Xrotation
					JOINT LeftToeEnd
					{
						OFFSET -0.009607 -1.647616 6.513017
						CHANNELS 3 Zrotation Yrotation Xrotation
						End Site
						{
							OFFSET 0.000000 0.000000 0.000000
						}
					}
				}
			}
		}
	}
	JOINT RightLeg
	{
		OFFSET -10.047277 -8.295259 2.620317
		CHANNELS 3 Zrotation Yrotation Xrotation
		JOINT RightShin
		{
			OFFSET 0.000001 -43.362209 -0.805556
			CHANNELS 3 Zrotation Yrotation Xrotation
			JOINT RightFoot
			{
				OFFSET 0.000002 -42.117393 -3.478398
				CHANNELS 3 Zrotation Yrotation Xrotation
				JOINT RightToeBase
				{
					OFFSET -0.000001 -5.079609 13.284196
					CHANNELS 3 Zrotation Yrotation Xrotation
					JOINT RightToeEnd
					{
						OFFSET 0.009532 -1.634383 6.460591
						CHANNELS 3 Zrotation Yrotation Xrotation
						End Site
						{
							OFFSET 0.000000 0.000000 0.000000
						}
					}
				}
			}
		}
	}
}
MOTION
Frames: 4
Frame Time: 0.033333
0.917596 96.832458 0.171213 -5.658983 0.091448 -9.236220 3.265331 0.029116 -0.971621 0.228091 0.264249 -4.952085 3.683009 -2.288220 11.423145 -2.474833 4.475607 13.753923 0.611107 4.175667 -3.584330 -4.634965 6.284109 -8.554483 0.000077 -0.000023 0.000006 0.003935 -0.106312 0.082415 0.720295 -3.858433 -10.634095 -0.722710 3.645136 -10.616847 -16.195688 -16.741631 9.273557 -23.091221 -25.926802 -25.200171 179.649551 -73.329750 -179.630630 9.016865 8.500425 14.883089 -5.882102 9.861279 0.702591 -10.936858 -0.360574 7.156198 0.000001 8.774812 0.000000 -16.374525 17.870556 6.073211 -1.844030 2.498503 -2.507277 -10.163592 4.678940 4.621106 -20.975996 -0.000004 0.000004 -21.226255 2.451693 -3.593993 0.000001 -0.000006 -0.000001 -1.362681 2.240797 -0.746324 -21.334887 0.584911 3.008320 -13.821197 -0.000002 0.000004 -23.887131 -0.249078 -0.839482 -61.479683 2.801955 -1.465498 -0.294024 1.679684 0.833254 -14.218195 0.093215 1.300579 -34.211998 -0.287561 0.967169 -20.033180 0.964535 1.212841 -0.000001 0.000000 0.000000 -3.440385 0.788234 0.501655 -15.928167 -3.167307 2.999702 -6.338817 0.000001 0.000001 -18.123411 3.648174 -4.905661 -0.000004 0.000002 -0.000002 15.183436 19.820885 11.960958 50.547649 47.382004 12.335496 -178.751862 57.999668 -179.172867 -14.784304 4.274738 -4.133718 2.243540 -5.255033 -3.180154 14.282878 -0.826595 6.952496 -0.000001 -12.690590 0.000001 16.050163 -18.084208 2.906039 1.665664 -1.955919 -2.878296 4.727795 -4.170584 4.993919 11.020513 0.000003 -0.000001 12.109030 -3.735710 -2.866779 -0.000000 -0.000001 0.000000 1.291984 -1.928548 -1.498090 14.800114 0.567467 3.865603 14.242553 -1.341734 -6.660647 19.631941 0.143925 -0.648242 49.514034 -0.772219 -6.092299 0.353028 -1.511149 -0.031941 20.222771 3.684306 2.316628 18.787247 0.000005 0.000001 10.751612 -0.479866 1.397905 -0.000000 0.000001 0.000001 3.273804 0.305946 -0.580110 21.486790 11.830364 2.266132 8.162916 0.000002 0.000000 18.399055 -3.798982 -4.940567 0.000002 -0.000002 0.000001 17.562279 -0.572271 -10.623587 -0.123190 -0.529357 24.364775 -13.726958 10.707991 -4.830315 1.650515 -2.021713 -1.860876 0.000000 -0.000000 0.000002 1.720295 4.232106 17.958660 -0.058074 0.167711 5.361284 8.521990 -6.836273 -11.851883 -1.457633 1.203389 -1.148524 -0.000000 -0.000000 -0.000001 
0.913779 96.833878 0.224570 -5.673812 -0.081825 -9.281369 3.288729 0.029510 -1.065948 0.232262 0.134921 -5.006894 3.776299 -2.204952 11.542498 -2.477486 4.454337 13.807471 0.589106 4.249759 -3.606707 -4.762165 6.450020 -8.436865 0.000077 -0.000023 0.000006 0.011096 -0.112909 0.090763 0.713050 -3.860993 -10.639715 -0.705692 3.643992 -10.631940 -16.331432 -16.664949 9.244102 -23.319462 -25.763397 -25.203739 -179.986572 -73.469414 179.984497 8.993417 8.147284 14.927456 -5.882102 9.861278 0.702589 -10.936861 -0.360575 7.156196 -0.000001 8.774812 -0.000003 -16.291828 17.697708 6.084438 -1.844030 2.498503 -2.507276 -10.163589 4.678937 4.621102 -20.975996 -0.000004 0.000003 -21.226254 2.451690 -3.593993 0.000002 -0.000006 -0.000000 -1.362680 2.240795 -0.746324 -21.334888 0.584909 3.008319 -13.821195 -0.000003 0.000004 -23.887133 -0.249078 -0.839483 -61.410725 2.686062 -1.380039 -0.294024 1.679686 0.833255 -14.218190 0.093217 1.300578 -34.212002 -0.287567 0.967168 -20.033176 0.964533 1.212840 0.000000 0.000001 0.000000 -3.440386 0.788231 0.501655 -15.928167 -3.167304 2.999703 -6.338818 0.000000 0.000002 -18.123415 3.648173 -4.905662 -0.000004 0.000001 -0.000002 15.498714 19.772987 12.091077 50.561737 47.247841 12.563444 -178.835861 57.964184 -179.249680 -14.675721 4.265272 -4.525616 2.243540 -5.255033 -3.180156 14.282877 -0.826593 6.952499 -0.000004 -12.690591 0.000000 16.002800 -17.906549 2.939240 1.665665 -1.955920 -2.878297 4.727793 -4.170584 4.993918 11.020511 0.000004 -0.000001 12.109030 -3.735708 -2.866781 -0.000001 -0.000001 0.000002 1.291984 -1.928548 -1.498087 14.800111 0.567470 3.865602 14.242550 -1.341734 -6.660648 19.631937 0.143926 -0.648243 49.439240 -0.693974 -5.990819 0.353028 -1.511149 -0.031940 20.222767 3.684307 2.316630 18.787243 0.000006 0.000000 10.751609 -0.479867 1.397903 -0.000000 0.000001 0.000001 3.273803 0.305947 -0.580110 21.486788 11.830365 2.266132 8.162916 0.000002 0.000000 18.399052 -3.798978 -4.940566 0.000002 0.000000 0.000000 17.613472 -0.651333 -10.467959 -0.129174 -0.487145 24.365381 -13.655022 10.961147 -4.913275 1.650294 -2.008716 -1.881339 0.000000 -0.000000 0.000002 1.754450 4.320881 18.077711 -0.073917 0.155022 5.248689 8.435740 -6.762698 -11.757889 -1.455294 1.178046 -1.197811 0.000000 -0.000000 -0.000001 
0.922564 96.814499 0.256408 -5.692536 -0.197393 -9.314171 3.307424 0.030814 -1.157356 0.225957 0.026454 -5.068959 3.881005 -2.157027 11.634680 -2.456084 4.449577 13.873500 0.584513 4.251522 -3.628693 -4.874918 6.576189 -8.360872 0.000077 -0.000023 0.000006 0.013671 -0.126232 0.099264 0.707433 -3.874896 -10.639896 -0.691697 3.614150 -10.635565 -16.450840 -16.627493 9.198706 -23.629929 -25.629921 -25.105625 -179.395325 -73.604813 179.411407 9.064976 7.747042 15.149922 -5.882102 9.861279 0.702589 -10.936857 -0.360573 7.156196 0.000001 8.774812 0.000001 -16.256580 17.593195 6.080435 -1.844031 2.498502 -2.507275 -10.163589 4.678942 4.621104 -20.975992 -0.000004 0.000001 -21.226250 2.451688 -3.593993 0.000000 -0.000006 -0.000001 -1.362680 2.240797 -0.746322 -21.334892 0.584908 3.008321 -13.821194 -0.000002 0.000004 -23.887123 -0.249079 -0.839483 -61.319939 2.628239 -1.350702 -0.294024 1.679687 0.833255 -14.218190 0.093216 1.300579 -34.211998 -0.287565 0.967168 -20.033175 0.964536 1.212842 0.000000 0.000001 0.000001 -3.440385 0.788232 0.501656 -15.928165 -3.167305 2.999703 -6.338817 -0.000001 0.000001 -18.123411 3.648174 -4.905662 -0.000004 0.000001 -0.000002 15.812696 19.690020 12.203426 50.592098 47.087658 12.642402 -179.062027 57.891895 -179.399414 -14.614418 4.302413 -5.085244 2.243540 -5.255033 -3.180156 14.282878 -0.826594 6.952495 -0.000003 -12.690592 0.000001 15.879588 -17.768108 2.924606 1.665664 -1.955919 -2.878294 4.727794 -4.170584 4.993917 11.020513 0.000004 0.000001 12.109034 -3.735711 -2.866779 -0.000001 0.000001 -0.000000 1.291984 -1.928548 -1.498088 14.800113 0.567469 3.865603 14.242553 -1.341734 -6.660648 19.631939 0.143927 -0.648242 49.321693 -0.611538 -5.990094 0.353028 -1.511149 -0.031940 20.222767 3.684309 2.316628 18.787247 0.000006 -0.000001 10.751612 -0.479868 1.397905 -0.000000 0.000000 0.000001 3.273805 0.305947 -0.580111 21.486792 11.830367 2.266129 8.162917 0.000003 -0.000001 18.399050 -3.798978 -4.940566 0.000003 -0.000002 0.000001 17.653898 -0.724625 -10.427478 -0.123360 -0.426409 24.491364 -13.669363 11.131264 -5.034164 1.651513 -1.998501 -1.815892 0.000000 -0.000001 0.000002 1.780544 4.378068 18.148689 -0.078942 0.144006 5.197082 8.332932 -6.651100 -11.795942 -1.454642 1.170845 -1.187356 0.000000 0.000000 -0.000001 
0.968951 96.778587 0.326048 -5.720356 -0.309119 -9.329576 3.336776 0.042586 -1.226071 0.226554 -0.071961 -5.111056 3.968441 -2.157743 11.680056 -2.448284 4.467910 13.891540 0.590138 4.237808 -3.638330 -4.984779 6.644409 -8.301459 0.000077 -0.000023 0.000006 0.015080 -0.132877 0.104352 0.705067 -3.877570 -10.636195 -0.686748 3.605051 -10.643798 -16.495386 -16.581848 9.153488 -23.972095 -25.539986 -25.004362 -178.919739 -73.679405 178.965912 9.148427 7.378231 15.433336 -5.882100 9.861279 0.702590 -10.936858 -0.360571 7.156196 0.000001 8.774814 -0.000001 -16.197077 17.511723 6.101264 -1.844030 2.498503 -2.507277 -10.163589 4.678941 4.621103 -20.975994 -0.000003 0.000004 -21.226255 2.451693 -3.593995 0.000001 -0.000005 0.000000 -1.362681 2.240797 -0.746322 -21.334890 0.584910 3.008320 -13.821197 -0.000001 0.000004 -23.887129 -0.249077 -0.839482 -61.193649 2.616138 -1.330853 -0.294027 1.679685 0.833254 -14.218194 0.093215 1.300580 -34.212002 -0.287563 0.967169 -20.033180 0.964534 1.212843 -0.000001 0.000001 -0.000000 -3.440385 0.788232 0.501655 -15.928167 -3.167308 2.999703 -6.338817 0.000001 0.000002 -18.123413 3.648177 -4.905663 -0.000004 0.000002 -0.000001 15.993046 19.610794 12.239947 50.727249 46.995960 12.681191 -179.343048 57.758720 -179.623993 -14.611795 4.296014 -5.588015 2.243540 -5.255031 -3.180154 14.282878 -0.826595 6.952496 -0.000004 -12.690588 0.000001 15.802529 -17.697208 2.930560 1.665666 -1.955920 -2.878298 4.727793 -4.170582 4.993917 11.020513 0.000004 0.000000 12.109034 -3.735709 -2.866780 -0.000001 0.000000 -0.000000 1.291985 -1.928548 -1.498088 14.800114 0.567466 3.865602 14.242554 -1.341734 -6.660645 19.631941 0.143925 -0.648243 49.343670 -0.589038 -5.954302 0.353029 -1.511149 -0.031940 20.222773 3.684305 2.316629 18.787251 0.000005 -0.000002 10.751614 -0.479868 1.397903 -0.000001 0.000000 0.000001 3.273804 0.305947 -0.580109 21.486795 11.830362 2.266131 8.162916 0.000003 0.000000 18.399054 -3.798981 -4.940565 0.000003 -0.000002 -0.000000 17.683922 -0.725638 -10.459332 -0.120891 -0.383035 24.774689 -13.696770 11.192094 -5.249473 1.650144 -1.994859 -1.749498 -0.000000 0.000000 0.000002 1.792510 4.441562 18.259615 -0.075237 0.124771 5.060427 8.289948 -6.546517 -11.846477 -1.457856 1.180527 -1.164591 0.000000 0.000000 -0.000001 
